<svg width="23" height="23" viewBox="0 0 23 23" fill="none" xmlns="http://www.w3.org/2000/svg">
<path d="M2.88405 0.690918C1.24174 0.690918 0.167969 1.76934 0.167969 3.18677C0.167969 4.5729 1.20975 5.68208 2.82103 5.68208H2.8522C4.52662 5.68208 5.56868 4.5729 5.56868 3.18677C5.53738 1.76934 4.52662 0.690918 2.88405 0.690918Z" fill="white"/>
<path d="M0.451172 7.65479H5.25232V22.0992H0.451172V7.65479Z" fill="white"/>
<path d="M17.0385 7.31543C14.4485 7.31543 12.7117 9.74922 12.7117 9.74922V7.65444H7.9104V22.0989H12.7114V14.0326C12.7114 13.6007 12.7427 13.1696 12.8696 12.8608C13.2167 11.9985 14.0065 11.1051 15.3329 11.1051C17.0702 11.1051 17.765 12.4298 17.765 14.3716V22.0989H22.5658V13.8167C22.5658 9.38 20.1971 7.31543 17.0385 7.31543Z" fill="white"/>
</svg>
