<svg width="24" height="24" viewBox="0 0 24 24" fill="none" xmlns="http://www.w3.org/2000/svg">
<path d="M12.3407 23.1883C12.2653 23.1883 12.1899 23.1883 12.114 23.188C10.3293 23.1923 8.68032 23.147 7.07664 23.0493C5.60636 22.9599 4.26428 22.4518 3.19527 21.5801C2.16379 20.739 1.4594 19.6017 1.10173 18.2002C0.790441 16.9801 0.773938 15.7824 0.758131 14.6239C0.746666 13.7927 0.734854 12.8078 0.732422 11.8062C0.734854 10.8004 0.746666 9.81546 0.758131 8.98426C0.773938 7.82596 0.790441 6.62823 1.10173 5.40793C1.4594 4.00644 2.16379 2.86916 3.19527 2.02806C4.26428 1.15639 5.60636 0.648286 7.07681 0.558826C8.6805 0.461375 10.3299 0.415863 12.1184 0.420205C13.9036 0.416384 15.5521 0.461375 17.1558 0.558826C18.6261 0.648286 19.9681 1.15639 21.0371 2.02806C22.0688 2.86916 22.773 4.00644 23.1307 5.40793C23.442 6.62806 23.4585 7.82596 23.4743 8.98426C23.4858 9.81546 23.4977 10.8004 23.5 11.802V11.8062C23.4977 12.8078 23.4858 13.7927 23.4743 14.6239C23.4585 15.7822 23.4422 16.9799 23.1307 18.2002C22.773 19.6017 22.0688 20.739 21.0371 21.5801C19.9681 22.4518 18.6261 22.9599 17.1558 23.0493C15.62 23.1428 14.0424 23.1883 12.3407 23.1883ZM12.114 21.4092C13.8697 21.4133 15.4817 21.369 17.0477 21.2739C18.1595 21.2063 19.1234 20.8455 19.9131 20.2015C20.643 19.6062 21.1457 18.7849 21.4071 17.7604C21.6663 16.7447 21.6813 15.6542 21.6957 14.5996C21.707 13.7739 21.7188 12.796 21.7212 11.8041C21.7188 10.812 21.707 9.83422 21.6957 9.00858C21.6813 7.95399 21.6663 6.86344 21.4071 5.84758C21.1457 4.82305 20.643 4.00175 19.9131 3.40645C19.1234 2.76268 18.1595 2.40188 17.0477 2.33431C15.4817 2.23894 13.8697 2.195 12.1182 2.19882C10.3629 2.19465 8.75068 2.23894 7.18469 2.33431C6.07295 2.40188 5.10903 2.76268 4.31935 3.40645C3.58942 4.00175 3.08671 4.82305 2.82527 5.84758C2.5661 6.86344 2.55116 7.95381 2.53674 9.00858C2.52545 9.83491 2.51364 10.8134 2.51121 11.8062C2.51364 12.7946 2.52545 13.7733 2.53674 14.5996C2.55116 15.6542 2.5661 16.7447 2.82527 17.7604C3.08671 18.7849 3.58942 19.6062 4.31935 20.2015C5.10903 20.8453 6.07295 21.2061 7.18469 21.2737C8.75068 21.369 10.3632 21.4135 12.114 21.4092ZM12.0717 17.3628C9.00672 17.3628 6.51295 14.8692 6.51295 11.8041C6.51295 8.73898 9.00672 6.24538 12.0717 6.24538C15.1368 6.24538 17.6304 8.73898 17.6304 11.8041C17.6304 14.8692 15.1368 17.3628 12.0717 17.3628ZM12.0717 8.02416C9.98749 8.02416 8.29174 9.71992 8.29174 11.8041C8.29174 13.8882 9.98749 15.584 12.0717 15.584C14.156 15.584 15.8516 13.8882 15.8516 11.8041C15.8516 9.71992 14.156 8.02416 12.0717 8.02416ZM18.2529 4.46659C17.5162 4.46659 16.9188 5.06381 16.9188 5.80068C16.9188 6.53756 17.5162 7.13477 18.2529 7.13477C18.9898 7.13477 19.587 6.53756 19.587 5.80068C19.587 5.06381 18.9898 4.46659 18.2529 4.46659Z" fill="white"/>
</svg>
