<svg width="30" height="22" viewBox="0 0 30 22" fill="none" xmlns="http://www.w3.org/2000/svg">
<path d="M15.1051 21.5977C15.1026 21.5977 15.1 21.5977 15.0973 21.5977C14.2206 21.5917 6.46976 21.521 4.2738 20.9271C2.73912 20.5145 1.52763 19.3044 1.11398 17.7695C0.539386 15.6123 0.575963 11.4591 0.579954 11.1275C0.576185 10.7974 0.539165 6.60988 1.11221 4.43498C1.11287 4.43299 1.11332 4.43077 1.11398 4.42877C1.52298 2.91138 2.76173 1.66376 4.27004 1.25011C4.2738 1.249 4.27779 1.24811 4.28156 1.247C6.4527 0.6764 14.2188 0.606571 15.0973 0.600586H15.1131C15.992 0.606571 23.7635 0.677287 25.9392 1.27205C27.4699 1.68349 28.6805 2.89209 29.0953 4.42501C29.6914 6.60146 29.6362 10.7981 29.6302 11.1523C29.6344 11.5012 29.6692 15.6172 29.098 17.7852C29.0975 17.7874 29.0968 17.7894 29.0964 17.7914C28.6825 19.3263 27.4713 20.5365 25.9348 20.9495C25.9328 20.9501 25.9306 20.9506 25.9286 20.9512C23.7577 21.5216 15.9914 21.5914 15.1131 21.5977C15.1104 21.5977 15.1077 21.5977 15.1051 21.5977ZM3.30639 5.01711C2.80185 6.93686 2.84951 11.071 2.84996 11.1126V11.1426C2.83488 12.2891 2.88786 15.6094 3.30662 17.182C3.50967 17.9351 4.1071 18.5316 4.8648 18.7353C6.48506 19.1736 12.7978 19.3115 15.1051 19.3277C17.4183 19.3115 23.7404 19.1774 25.3487 18.7566C26.1039 18.5522 26.6994 17.9577 26.9038 17.2037C27.323 15.6081 27.3755 12.304 27.3602 11.1647C27.3602 11.1528 27.3602 11.1408 27.3604 11.1288C27.3813 9.96855 27.3403 6.60944 26.9058 5.02421C26.9053 5.02266 26.9049 5.0211 26.9047 5.01955C26.7007 4.26318 26.1031 3.66664 25.3454 3.46292C23.7408 3.02421 17.4179 2.88677 15.1051 2.87059C12.7934 2.88677 6.47752 3.02066 4.86436 3.44097C4.12107 3.64713 3.51012 4.26495 3.30639 5.01711ZM12.2119 15.6957V6.50237L20.1569 11.0991L12.2119 15.6957Z" fill="white"/>
</svg>
