<svg width="115" height="98" viewBox="0 0 115 98" fill="none" xmlns="http://www.w3.org/2000/svg">
<path d="M40.167 44.6158H24.8207C22.9936 44.6158 21.4404 43.9766 20.1614 42.6976C18.8832 41.4186 18.2432 39.8658 18.2432 38.0383V35.847C18.2432 31.0053 19.9562 26.8723 23.3821 23.4464C26.8078 20.0217 30.9416 18.3086 35.7827 18.3086H40.167C41.3543 18.3086 42.3816 17.8745 43.2497 17.0071C44.1174 16.1391 44.5513 15.1119 44.5513 13.9243V5.1543C44.5513 3.96698 44.1172 2.93876 43.2497 2.07083C42.3818 1.20409 41.3546 0.769287 40.167 0.769287H35.7827C31.0323 0.769287 26.5002 1.69505 22.1835 3.54393C17.8674 5.39402 14.1341 7.89487 10.9823 11.0467C7.83066 14.1972 5.33053 17.9307 3.48069 22.2473C1.63085 26.5634 0.705811 31.0968 0.705811 35.8467V84.0764C0.705811 87.7321 1.98407 90.8362 4.54179 93.3949C7.09975 95.9522 10.2063 97.2307 13.8599 97.2307H40.1687C43.822 97.2307 46.9276 95.9522 49.4858 93.3949C52.043 90.8362 53.322 87.7321 53.322 84.0764V57.7699C53.322 54.1148 52.043 51.0107 49.4841 48.4518C46.9271 45.8948 43.8204 44.6158 40.167 44.6158Z" fill="#FF7244"/>
<path d="M110.872 48.4518C108.315 45.8948 105.209 44.6158 101.554 44.6158H86.2084C84.3823 44.6158 82.8276 43.9766 81.5508 42.6976C80.2713 41.4186 79.6325 39.8658 79.6325 38.0383V35.847C79.6325 31.0053 81.3456 26.8723 84.7698 23.4464C88.1943 20.0217 92.3278 18.3086 97.1713 18.3086H101.555C102.742 18.3086 103.77 17.8745 104.638 17.0071C105.505 16.1391 105.94 15.1119 105.94 13.9243V5.1543C105.94 3.96698 105.505 2.93876 104.638 2.07083C103.77 1.20409 102.742 0.769287 101.555 0.769287H97.1713C92.4182 0.769287 87.8871 1.69505 83.5693 3.54393C79.2539 5.39402 75.5218 7.89487 72.3699 11.0467C69.2181 14.1972 66.7168 17.9307 64.8676 22.2473C63.0183 26.5634 62.092 31.0968 62.092 35.8467V84.0764C62.092 87.7321 63.3715 90.8362 65.9285 93.3949C68.4857 95.9522 71.5915 97.2307 75.2456 97.2307H101.553C105.207 97.2307 108.313 95.9522 110.87 93.3949C113.429 90.8362 114.706 87.7321 114.706 84.0764V57.7699C114.706 54.1146 113.429 51.0107 110.872 48.4518Z" fill="#FF7244"/>
</svg>
