<svg width="17" height="17" viewBox="0 0 17 17" fill="none" xmlns="http://www.w3.org/2000/svg">
<g clip-path="url(#clip0_122_6321)">
<path d="M14.9247 2.03125H2.07883C0.932133 2.03125 0 2.96338 0 4.11008V12.8897C0 14.0364 0.932133 14.9686 2.07883 14.9686H14.9212C16.0679 14.9686 17 14.0364 17 12.8897V4.1136C17.0035 2.9669 16.0714 2.03125 14.9247 2.03125ZM16.0538 12.8897C16.0538 13.5123 15.5473 14.0188 14.9247 14.0188H2.07883C1.45624 14.0188 0.949721 13.5123 0.949721 12.8897V4.1136C0.949721 3.49101 1.45624 2.98449 2.07883 2.98449H14.9212C15.5438 2.98449 16.0503 3.49101 16.0503 4.1136V12.8897H16.0538Z" fill="white"/>
<path d="M10.7214 8.3909L14.8791 4.66237C15.0725 4.48649 15.0901 4.18751 14.9142 3.99053C14.7384 3.79707 14.4394 3.77948 14.2424 3.95535L8.50889 9.10143L7.39034 8.10247C7.38682 8.09895 7.3833 8.09543 7.3833 8.09191C7.35868 8.06729 7.33405 8.04619 7.30592 8.02508L2.75429 3.95184C2.55731 3.77596 2.25833 3.79355 2.08245 3.99053C1.90658 4.18751 1.92416 4.48649 2.12114 4.66237L6.32805 8.42256L2.13873 12.3446C1.94879 12.5239 1.93823 12.8229 2.11763 13.0164C2.2126 13.1149 2.33923 13.1676 2.46586 13.1676C2.58193 13.1676 2.69801 13.1254 2.78947 13.041L7.0421 9.06274L8.19584 10.0934C8.28729 10.1743 8.39985 10.213 8.51241 10.213C8.62497 10.213 8.74105 10.1707 8.82899 10.0898L10.0144 9.02757L14.2424 13.0445C14.3338 13.1325 14.4534 13.1747 14.5695 13.1747C14.6961 13.1747 14.8193 13.1254 14.9142 13.0269C15.0936 12.837 15.0866 12.5345 14.8966 12.3551L10.7214 8.3909Z" fill="white"/>
</g>
<defs>
<clipPath id="clip0_122_6321">
<rect width="17" height="17" fill="white"/>
</clipPath>
</defs>
</svg>
