<svg width="24" height="24" viewBox="0 0 24 24" fill="none" xmlns="http://www.w3.org/2000/svg">
<g clip-path="url(#clip0_219_533)">
<path fill-rule="evenodd" clip-rule="evenodd" d="M23.9993 22.6749C23.9993 23.4064 23.4064 24 22.6749 24H16.5592V14.7058H19.6788L20.1462 11.0841H16.5592V8.77119C16.5592 7.7226 16.8507 7.00806 18.3543 7.00806L20.2724 7.00741V3.76749C19.9403 3.72369 18.8021 3.62497 17.4777 3.62497C14.7124 3.62497 12.8191 5.31292 12.8191 8.41294V11.0841H9.69165V14.7058H12.8191V24H1.32447C0.59294 24 0 23.4064 0 22.6749V1.32513C0 0.59294 0.59294 0 1.32447 0H22.6749C23.4064 0 23.9993 0.59294 23.9993 1.32513V22.6749Z" fill="white"/>
</g>
<defs>
<clipPath id="clip0_219_533">
<rect width="24" height="24" fill="white"/>
</clipPath>
</defs>
</svg>
