<svg width="24" height="24" viewBox="0 0 24 24" fill="none" xmlns="http://www.w3.org/2000/svg">
<g clip-path="url(#clip0_219_546)">
<path fill-rule="evenodd" clip-rule="evenodd" d="M21.1472 0H2.8528C1.27715 0 0 1.27387 0 2.84625V21.1538C0 22.7255 1.27715 24 2.8528 24H21.1472C22.7228 24 24 22.7255 24 21.1538V2.84625C24 1.27387 22.7228 0 21.1472 0ZM17.2503 3.74961C17.2503 3.3359 17.5861 3.00008 17.9998 3.00008H20.2497C20.6641 3.00008 20.9999 3.3359 20.9999 3.74961V6.00016C20.9999 6.41388 20.6641 6.74969 20.2497 6.74969H17.9998C17.5861 6.74969 17.2503 6.41388 17.2503 6.00016V3.74961ZM12.0278 7.42329C14.5769 7.42329 16.6435 9.48531 16.6435 12.0278C16.6435 14.571 14.5769 16.6324 12.0278 16.6324C9.47942 16.6324 7.41281 14.571 7.41281 12.0278C7.41281 9.48531 9.47942 7.42329 12.0278 7.42329ZM21.7501 20.9999C21.7501 21.4136 21.4143 21.7501 20.9999 21.7501H3.00008C2.58571 21.7501 2.24989 21.4136 2.24989 20.9999V9.74977H5.24998C4.85918 10.3121 4.72694 11.3614 4.72694 12.0278C4.72694 16.0439 8.00261 19.3117 12.0278 19.3117C16.0537 19.3117 19.3293 16.0439 19.3293 12.0278C19.3293 11.3614 19.2344 10.3285 18.75 9.74977H21.7501V20.9999Z" fill="white"/>
</g>
<defs>
<clipPath id="clip0_219_546">
<rect width="24" height="24" fill="white"/>
</clipPath>
</defs>
</svg>
