<svg width="22" height="22" viewBox="0 0 22 22" fill="none" xmlns="http://www.w3.org/2000/svg">
<g clip-path="url(#clip0_122_6607)">
<path d="M17.9709 3.41504H3.86157C2.94905 3.41742 2.07453 3.78077 1.42901 4.42576C0.783485 5.07075 0.419399 5.94496 0.41626 6.85748L0.41626 16.045C0.418642 16.958 0.782394 17.8329 1.428 18.4786C2.07361 19.1242 2.94855 19.4879 3.86157 19.4903H17.9709C18.884 19.4879 19.7589 19.1242 20.4045 18.4786C21.0501 17.8329 21.4139 16.958 21.4163 16.045V6.85748C21.4131 5.94496 21.049 5.07075 20.4035 4.42576C19.758 3.78077 18.8835 3.41742 17.9709 3.41504ZM18.9508 8.58014C18.9511 8.65084 18.9336 8.72048 18.9 8.78268C18.8664 8.84488 18.8177 8.89765 18.7584 8.93615L11.6135 13.6726C11.5444 13.7187 11.4632 13.7435 11.3802 13.744C11.2971 13.7445 11.2157 13.7207 11.1459 13.6755L3.07694 8.49811C3.01578 8.45961 2.96537 8.40624 2.93044 8.34297C2.89551 8.27971 2.87719 8.20862 2.8772 8.13635V6.42887C2.87728 6.352 2.89807 6.27657 2.93738 6.21051C2.9767 6.14446 3.03308 6.09021 3.10062 6.05349C3.16815 6.01676 3.24432 5.99891 3.32114 6.00182C3.39796 6.00472 3.47257 6.02827 3.53714 6.06998L11.1242 10.9316C11.194 10.9768 11.2755 11.0006 11.3586 11.0001C11.4418 10.9996 11.523 10.9748 11.5922 10.9287L18.2851 6.499C18.3496 6.45589 18.4245 6.4311 18.5019 6.42728C18.5794 6.42346 18.6564 6.44076 18.7248 6.47732C18.7931 6.51388 18.8503 6.56834 18.8901 6.63487C18.9299 6.70139 18.9509 6.77749 18.9508 6.85502V8.58014Z" fill="white" stroke="white" stroke-width="0.25" stroke-miterlimit="10"/>
</g>
<defs>
<clipPath id="clip0_122_6607">
<rect width="21" height="21" fill="white" transform="translate(0.41626 0.951172)"/>
</clipPath>
</defs>
</svg>
