<svg width="23" height="23" viewBox="0 0 23 23" fill="none" xmlns="http://www.w3.org/2000/svg">
<path d="M6.26056 2.24348C6.76449 2.84436 8.99612 6.36848 8.89368 6.95423C8.84487 7.22923 8.61043 7.43961 7.93874 8.00267C7.60814 8.26306 7.29849 8.54903 7.01268 8.85792C7.1494 9.42388 7.35247 9.97172 7.61768 10.49C8.60734 12.5228 10.25 14.165 12.2831 15.154C12.8014 15.4193 13.3492 15.6223 13.9152 15.759C14.2241 15.4732 14.51 15.1636 14.7704 14.833C15.3335 14.162 15.5425 13.9269 15.8189 13.878C16.406 13.7756 19.9287 16.0093 20.5296 16.5112C20.7785 16.7215 20.9456 16.9127 20.9456 17.1574C20.9456 17.8669 16.9773 21.0762 16.4631 21.0762C16.4211 21.0762 12.2899 21.0074 6.98174 15.79C1.76431 10.4818 1.69556 6.35061 1.69556 6.30867C1.69556 5.79442 4.90481 1.82617 5.61431 1.82617C5.85906 1.82617 6.05018 1.99323 6.26056 2.24348Z" fill="white"/>
<path d="M12.0081 6.63867L12.0081 5.26367C13.4662 5.26531 14.8642 5.8453 15.8953 6.87639C16.9264 7.90749 17.5064 9.30548 17.5081 10.7637L16.1331 10.7637C16.132 9.66999 15.697 8.62141 14.9237 7.84806C14.1503 7.07471 13.1017 6.63976 12.0081 6.63867Z" fill="white"/>
<path d="M12.0081 3.20117L12.0081 1.82617C14.3776 1.8289 16.6493 2.7714 18.3248 4.44692C20.0003 6.12243 20.9428 8.39414 20.9456 10.7637L19.5706 10.7637C19.5682 8.7587 18.7707 6.83652 17.3529 5.41879C15.9352 4.00106 14.013 3.20354 12.0081 3.20117Z" fill="white"/>
</svg>
