<svg width="31" height="31" viewBox="0 0 31 31" fill="none" xmlns="http://www.w3.org/2000/svg">
<g clip-path="url(#clip0_122_6002)">
<path fill-rule="evenodd" clip-rule="evenodd" d="M15.5872 0.938477C7.31372 0.938477 0.587158 7.66504 0.587158 15.9385C0.587158 24.2119 7.31372 30.9385 15.5872 30.9385C23.8606 30.9385 30.5872 24.2119 30.5872 15.9385C30.5872 7.66504 23.8606 0.938477 15.5872 0.938477Z" fill="#4BAE4F"/>
<path fill-rule="evenodd" clip-rule="evenodd" d="M22.8411 10.8818C23.2043 11.2451 23.2043 11.8428 22.8411 12.2061L14.052 20.9951C13.8704 21.1768 13.6301 21.2705 13.3899 21.2705C13.1497 21.2705 12.9094 21.1768 12.7278 20.9951L8.33325 16.6006C7.96997 16.2373 7.96997 15.6396 8.33325 15.2764C8.69653 14.9131 9.29419 14.9131 9.65747 15.2764L13.3899 19.0088L21.5168 10.8818C21.8801 10.5127 22.4778 10.5127 22.8411 10.8818Z" fill="white"/>
</g>
<defs>
<clipPath id="clip0_122_6002">
<rect width="30" height="30" fill="white" transform="translate(0.587158 0.938477)"/>
</clipPath>
</defs>
</svg>
