<svg width="22" height="23" viewBox="0 0 22 23" fill="none" xmlns="http://www.w3.org/2000/svg">
<path d="M18.6774 4.19115C16.8467 2.33975 14.4145 1.20386 11.8197 0.988562C9.22498 0.773267 6.63876 1.49275 4.52799 3.01712C2.41721 4.54149 0.920992 6.77029 0.309456 9.30111C-0.302081 11.8319 0.0113678 14.498 1.19321 16.818L0.0353146 22.4396C0.0229166 22.4957 0.0224362 22.5538 0.0339045 22.6102C0.0453728 22.6665 0.0685347 22.7198 0.101893 22.7667C0.149666 22.8376 0.217954 22.8922 0.29762 22.9233C0.377287 22.9543 0.464532 22.9603 0.547683 22.9404L6.04768 21.6348C8.3613 22.7857 11.0082 23.0782 13.5173 22.4604C16.0264 21.8426 18.2349 20.3545 19.7496 18.2609C21.2644 16.1674 21.9871 13.6043 21.7892 11.0278C21.5912 8.45138 20.4855 6.02874 18.6687 4.19115H18.6774ZM16.9579 17.9035C15.6919 19.1674 14.0615 20.0026 12.2961 20.2918C10.5307 20.5811 8.71902 20.3097 7.11584 19.5159L6.34584 19.1338L2.96768 19.9327V19.8893L3.67979 16.4822L3.30347 15.7412C2.48375 14.1336 2.19431 12.3077 2.4767 10.5255C2.7591 8.74326 3.5988 7.09628 4.87532 5.82089C6.47815 4.21972 8.65106 3.32033 10.9166 3.32033C13.1822 3.32033 15.3551 4.21972 16.9579 5.82089L16.9956 5.87299C18.5776 7.47925 19.4607 9.64561 19.4526 11.9001C19.4444 14.1546 18.5457 16.3145 16.9522 17.9093L16.9579 17.9035Z" fill="white"/>
<path d="M16.6597 15.4251C16.2458 16.0764 15.5887 16.8725 14.7695 17.0722C13.3221 17.4196 11.1192 17.0722 8.36052 14.5219L8.32578 14.4901C5.92605 12.2496 5.2892 10.3825 5.43105 8.90325C5.51499 8.06088 6.21552 7.30246 6.80605 6.80456C6.89993 6.7254 7.01104 6.66929 7.13048 6.64073C7.24992 6.61217 7.37439 6.61194 7.49394 6.64007C7.61348 6.6682 7.72479 6.7239 7.81897 6.80273C7.91314 6.88155 7.98757 6.98131 8.03631 7.09404L8.92499 9.10298C8.98301 9.2323 9.00477 9.37496 8.98794 9.5157C8.97111 9.65643 8.91634 9.78994 8.82947 9.90193L8.37789 10.4809C8.28403 10.6011 8.22811 10.7465 8.21729 10.8986C8.20646 11.0507 8.24121 11.2026 8.3171 11.3348C8.74605 11.9671 9.25929 12.5378 9.84263 13.0311C10.4702 13.6351 11.182 14.1451 11.9558 14.5451C12.097 14.602 12.252 14.6156 12.401 14.5842C12.5499 14.5527 12.6862 14.4776 12.7924 14.3685L13.3105 13.8417C13.4091 13.7356 13.5351 13.659 13.6746 13.6201C13.8141 13.5813 13.9616 13.5818 14.1008 13.6217L16.2139 14.2267C16.3337 14.2607 16.4437 14.3225 16.5352 14.407C16.6266 14.4915 16.6968 14.5963 16.7403 14.713C16.7837 14.8297 16.799 14.955 16.785 15.0787C16.771 15.2024 16.7281 15.321 16.6597 15.4251Z" fill="white"/>
</svg>
