<svg width="24" height="24" viewBox="0 0 24 24" fill="none" xmlns="http://www.w3.org/2000/svg">
<g clip-path="url(#clip0_219_539)">
<path fill-rule="evenodd" clip-rule="evenodd" d="M19 0C21.7614 0 24 2.23858 24 5V18.8894C24 21.6508 21.7614 23.8894 19 23.8894H5C2.23858 23.8894 0 21.6508 0 18.8894V5C0 2.23858 2.23858 0 5 0H19ZM9.97266 6.95391H6.47906L10.6533 12.413L6.69703 16.935H8.39109L11.445 13.4461L14.1136 16.935H17.5209L13.1695 11.182L16.8684 6.95391H15.1753L12.3848 10.1433L9.97266 6.95391ZM9.46313 7.91437L15.5194 15.9216H14.5809L8.45625 7.91437H9.46313Z" fill="white"/>
</g>
<defs>
<clipPath id="clip0_219_539">
<rect width="24" height="24" fill="white"/>
</clipPath>
</defs>
</svg>
